<svg width="353" height="399" viewBox="0 0 353 399" fill="none" xmlns="http://www.w3.org/2000/svg">
<g clip-path="url(#clip0_17_311)">
<path d="M265.175 134.463C242.743 90.8446 260.531 35.7348 304.307 13.2216C341.809 -6.06469 387.596 4.03298 414.079 34.7207C421.054 42.9003 418.831 55.4419 409.346 60.3198L265.175 134.463ZM265.175 134.463C287.607 178.082 269.82 233.192 226.043 255.705C188.541 274.991 142.755 264.893 116.271 234.206C109.297 226.026 111.519 213.484 121.004 208.607L265.175 134.463ZM265.175 134.463C221.399 156.976 166.225 139.388 143.793 95.7699C124.576 58.4033 134.83 12.6833 165.66 -13.8352C173.878 -20.8189 186.439 -18.6381 191.3 -9.18739L265.175 134.463ZM265.175 134.463C308.952 111.95 364.126 129.538 386.558 173.156C405.774 210.523 395.521 256.243 364.69 282.762C356.473 289.745 343.911 287.564 339.051 278.114L265.175 134.463Z" fill="url(#paint0_linear_17_311)"/>
</g>
<defs>
<linearGradient id="paint0_linear_17_311" x1="181.235" y1="-22.3603" x2="323.248" y2="304.602" gradientUnits="userSpaceOnUse">
<stop stop-color="#FF2F7A"/>
<stop offset="1" stop-color="#FF6099"/>
</linearGradient>
<clipPath id="clip0_17_311">
<rect width="393.811" height="392.389" fill="white" transform="translate(0.341064 50.0415) rotate(-27.2156)"/>
</clipPath>
</defs>
</svg>
