<svg width="116" height="116" viewBox="0 0 116 116" fill="none" xmlns="http://www.w3.org/2000/svg">
<path d="M74.9167 9.6665C87 9.6665 96.6667 19.3332 96.6667 31.4165C96.6667 35.6698 95.4584 39.6815 93.3317 43.0165L108.218 57.9998L101.5 64.7182L86.42 49.8798C83.085 51.9582 79.1217 53.1665 74.9167 53.1665C62.8334 53.1665 53.1667 43.4998 53.1667 31.4165C53.1667 19.3332 62.8334 9.6665 74.9167 9.6665ZM74.9167 19.3332C71.712 19.3332 68.6385 20.6062 66.3725 22.8723C64.1064 25.1384 62.8334 28.2118 62.8334 31.4165C62.8334 34.6212 64.1064 37.6946 66.3725 39.9607C68.6385 42.2268 71.712 43.4998 74.9167 43.4998C78.1214 43.4998 81.1948 42.2268 83.4609 39.9607C85.727 37.6946 87 34.6212 87 31.4165C87 28.2118 85.727 25.1384 83.4609 22.8723C81.1948 20.6062 78.1214 19.3332 74.9167 19.3332ZM36.25 70.0832L19.3334 91.8332H87L65.25 62.8332L48.3334 84.5832L36.25 70.0832ZM96.6667 96.6665C96.6667 99.2303 95.6482 101.689 93.8354 103.502C92.0225 105.315 89.5638 106.333 87 106.333H19.3334C16.7696 106.333 14.3108 105.315 12.498 103.502C10.6851 101.689 9.66669 99.2303 9.66669 96.6665V28.9998C9.66669 26.4361 10.6851 23.9773 12.498 22.1645C14.3108 20.3516 16.7696 19.3332 19.3334 19.3332H45.9167C44.37 23.0548 43.5 27.1148 43.5 31.4165C43.5 39.7487 46.81 47.7397 52.7017 53.6314C58.5935 59.5232 66.5845 62.8332 74.9167 62.8332C78.2034 62.8332 81.3933 62.3015 84.39 61.3832L96.6667 73.6598V96.6665Z" fill="#EFEFEF"/>
</svg>
