<svg width="22" height="16" viewBox="0 0 22 16" fill="none" xmlns="http://www.w3.org/2000/svg">
<path d="M0.333496 8C0.333496 7.26362 0.93045 6.66667 1.66683 6.66667H15.0002C15.7365 6.66667 16.3335 7.26362 16.3335 8V8C16.3335 8.73638 15.7365 9.33333 15.0002 9.33333H1.66683C0.930449 9.33333 0.333496 8.73638 0.333496 8V8ZM0.333496 1.33333C0.333496 0.596954 0.93045 0 1.66683 0H20.3335C21.0699 0 21.6668 0.596954 21.6668 1.33333V1.33333C21.6668 2.06971 21.0699 2.66667 20.3335 2.66667H1.66683C0.930452 2.66667 0.333496 2.06971 0.333496 1.33333V1.33333ZM0.333496 14.6667C0.333496 15.403 0.930449 16 1.66683 16H8.64683C9.38321 16 9.98016 15.403 9.98016 14.6667V14.6667C9.98016 13.9303 9.38321 13.3333 8.64683 13.3333H1.66683C0.930449 13.3333 0.333496 13.9303 0.333496 14.6667V14.6667Z" fill="#2A3447"/>
</svg>
