<svg width="33" height="33" viewBox="0 0 33 33" fill="none" xmlns="http://www.w3.org/2000/svg">
<rect width="33" height="33" rx="16.5" fill="url(#paint0_linear_17_536)"/>
<path d="M24.0506 7.94949C23.9578 7.85714 23.8406 7.7932 23.7127 7.76519C23.5848 7.73718 23.4516 7.74626 23.3287 7.79137L8.20369 13.2914C8.07325 13.3408 7.96095 13.4288 7.8817 13.5436C7.80245 13.6585 7.76001 13.7947 7.76001 13.9342C7.76001 14.0737 7.80245 14.2099 7.8817 14.3247C7.96095 14.4395 8.07325 14.5275 8.20369 14.577L14.1093 16.9351L18.4681 12.5626L19.4374 13.532L15.0581 17.9114L17.4231 23.817C17.474 23.9449 17.5622 24.0546 17.6762 24.1318C17.7902 24.209 17.9247 24.2502 18.0624 24.2501C18.2014 24.2473 18.3362 24.2024 18.4491 24.1214C18.562 24.0404 18.6477 23.9271 18.6949 23.7964L24.1949 8.67137C24.2418 8.54973 24.2531 8.41729 24.2275 8.28948C24.202 8.16167 24.1406 8.04375 24.0506 7.94949Z" fill="white"/>
<defs>
<linearGradient id="paint0_linear_17_536" x1="42.5192" y1="43.7548" x2="13.0737" y2="-6.8145" gradientUnits="userSpaceOnUse">
<stop stop-color="#0052D4"/>
<stop offset="0.386694" stop-color="#4364F7"/>
<stop offset="1" stop-color="#6FB1FC"/>
</linearGradient>
</defs>
</svg>
