<svg width="149" height="127" viewBox="0 0 149 127" fill="none" xmlns="http://www.w3.org/2000/svg">
<path d="M57.3524 50.7759L11.1434 91.488C7.50799 94.7073 4.57339 98.6712 2.75569 103.183C-0.113206 110.3 -0.945403 119.98 11.9975 124.666C15.392 125.893 19.0055 126.462 22.619 126.44L128.79 125.849C136.17 125.805 143.069 121.754 146.332 115.14C148.456 110.826 149.091 105.592 145.215 100.138C141.624 95.0796 135.732 92.1669 129.535 92.0793L47.4098 90.7872L57.3524 50.7759Z" fill="white"/>
<path d="M88.9758 76.1581L133.652 35.0299C136.389 32.5114 138.667 29.4892 140.266 26.1166C143.66 18.9334 146.354 7.41398 132.382 2.17988C129.119 0.953477 125.636 0.405977 122.132 0.427877L20.3412 1.19438C13.377 1.23818 6.87272 5.00498 3.63152 11.1808C1.31012 15.6265 0.412223 21.1672 4.37612 26.9707C7.83632 32.0077 13.6179 34.9204 19.728 35.008L98.4585 36.1687L88.9758 76.1581Z" fill="white"/>
</svg>
